<?xml version="1.0" encoding="UTF-8" standalone="no"?>
<!-- Created with Inkscape (http://www.inkscape.org/) -->

<svg
   width="210mm"
   height="297mm"
   viewBox="0 0 210 297"
   version="1.1"
   id="svg5"
   xml:space="preserve"
   inkscape:version="1.2.1 (9c6d41e410, 2022-07-14)"
   sodipodi:docname="new_capenna_logo.svg"
   xmlns:inkscape="http://www.inkscape.org/namespaces/inkscape"
   xmlns:sodipodi="http://sodipodi.sourceforge.net/DTD/sodipodi-0.dtd"
   xmlns="http://www.w3.org/2000/svg"
   xmlns:svg="http://www.w3.org/2000/svg"><sodipodi:namedview
     id="namedview7"
     pagecolor="#505050"
     bordercolor="#ffffff"
     borderopacity="1"
     inkscape:showpageshadow="0"
     inkscape:pageopacity="0"
     inkscape:pagecheckerboard="1"
     inkscape:deskcolor="#505050"
     inkscape:document-units="mm"
     showgrid="false"
     inkscape:zoom="1.0570195"
     inkscape:cx="336.79606"
     inkscape:cy="408.69634"
     inkscape:window-width="1920"
     inkscape:window-height="1011"
     inkscape:window-x="0"
     inkscape:window-y="32"
     inkscape:window-maximized="1"
     inkscape:current-layer="layer1" /><defs
     id="defs2" /><g
     inkscape:label="Layer 1"
     inkscape:groupmode="layer"
     id="layer1"><path
       style="fill:#040404;stroke:none;stroke-width:0.422868"
       d="m 168.33417,86.153735 c -3.95085,10.72402 -14.2959,18.406095 -22.83488,25.372095 v 0.42287 c 1.92109,1.56715 6.40603,6.79849 8.88023,6.6954 1.7955,-0.0748 3.99442,-1.92164 5.49729,-2.81909 8.20237,-4.89864 12.10798,-13.97784 10.28965,-23.328255 -0.39792,-2.04736 -0.45754,-4.75138 -1.83229,-6.34302 m -114.174422,0.42287 c -1.99738,10.84293 -2.855105,21.208995 7.611627,28.332175 1.691008,1.15083 5.418126,4.19231 7.611628,3.73532 2.577297,-0.53692 6.151972,-5.11802 8.457362,-6.6954 C 67.810475,103.9898 61.427952,96.671329 54.159748,86.576605 m 38.058137,66.813175 c 9.204155,5.81317 28.146965,6.84159 37.635275,0.77512 1.57688,-1.00812 0.9024,-5.285 1.69148,-7.11814 2.72961,-6.33922 9.81138,-6.2225 15.22325,-4.22868 1.89022,-4.78898 4.91162,-9.16567 6.90671,-13.95465 0.48672,-1.16792 1.78028,-2.92917 1.76209,-4.22868 -0.0165,-1.18179 -1.56038,-2.1401 -2.25515,-2.96008 -2.03104,-2.39711 -6.56588,-7.7587 -9.79659,-8.38687 -2.65731,-0.51675 -5.23046,2.04173 -8.0345,0.21143 -3.1085,-2.02922 -1.51683,-5.39309 -3.45356,-7.32974 -2.86747,-2.86761 -9.60884,-4.84452 -13.46117,-6.06111 -3.15121,7.98325 -10.1814,5.97404 -13.95465,0 -3.85445,1.41999 -10.531115,3.13108 -13.461295,6.06111 -2.02364,2.02363 -9e-5,5.38417 -3.45344,7.32974 -4.06245,2.28869 -7.0759,-1.36269 -10.99457,1.90291 -2.19769,1.8314 -9.134844,6.49107 -8.739293,9.65547 0.543639,4.34878 4.211387,9.26843 6.131593,13.10892 0.58444,1.16881 1.14808,3.26792 2.32577,4.01725 1.45183,0.92396 6.3097,-0.85716 8.31642,-0.63431 5.15925,0.57341 8.9868,7.08939 7.61163,11.84031 m -40.595347,-47.7841 c -3.503742,12.10384 3.980839,24.33606 16.49186,26.64069 l -3.030569,-8.03449 2.607701,-3.80582 c -6.819221,-4.01989 -11.899566,-8.31461 -16.068992,-14.80038 m 119.671712,0 c -3.24255,6.4851 -9.22952,12.10058 -16.06899,14.80038 l 2.74864,3.38295 -3.17151,8.45736 c 9.9484,-0.78526 17.3376,-10.41486 17.3376,-19.8748 0,-2.02042 0.29854,-5.19249 -0.84574,-6.76589 m -71.04186,3.03057 c 2.71058,-0.41412 6.05716,0.40117 7.96387,2.46671 0.92693,1.00423 1.53755,3.36189 3.0307,3.66488 1.71854,0.34865 2.81588,-2.67511 3.80582,-3.66488 1.9786,-1.97872 4.82915,-2.80772 7.61162,-2.53721 4.20247,0.40858 7.37736,3.63481 8.31655,7.61163 0.32603,1.38054 -0.31334,3.15676 0.98655,4.15819 1.36883,1.0548 7.14013,-1.84721 9.72597,-1.05717 7.78754,2.37961 7.49703,14.66072 0,17.05584 -4.38345,1.40012 -9.10224,-0.58525 -10.85376,-4.9336 -0.62499,-1.55193 -0.12094,-4.40341 -1.83228,-5.28586 -1.33796,-0.68999 -2.65604,0.90786 -3.80582,1.3391 -2.47293,0.92748 -5.67531,0.85982 -8.03449,-0.35242 -1.79973,-0.92481 -3.91745,-5.68077 -5.92016,-5.28585 -1.51344,0.29846 -2.00608,2.18488 -2.81926,3.242 -1.09143,1.4189 -3.07087,2.41268 -4.79237,2.81914 -2.67337,0.63105 -8.246355,-2.66859 -9.725975,-1.48004 -1.39305,1.11899 -1.07091,3.4964 -1.76196,5.00393 -2.01171,4.38937 -6.20695,6.37474 -10.92408,4.9336 -7.55294,-2.30801 -7.31884,-15.22791 0.42287,-17.05584 1.48486,-0.3506 4.02832,-0.44883 5.49728,0 1.26078,0.38528 2.48841,2.0041 3.80582,1.05717 1.71688,-1.23401 1.00207,-3.27799 1.40954,-5.00392 0.89424,-3.78713 4.21756,-6.13379 7.893565,-6.6954 m -47.361247,16.84423 c 0,12.86704 9.501341,18.18334 21.143412,18.18334 l -4.722044,-9.09167 -9.232609,-3.665 -7.188759,-5.42667 m 116.711637,0 -8.0345,6.27241 -7.89368,2.81926 -4.79237,9.09167 c 8.42777,0 17.13293,-1.92321 20.15686,-10.99458 0.63727,-1.91221 1.7769,-5.52037 0.56369,-7.18876 M 60.502771,143.24095 c 3.287884,6.5756 10.020411,10.43723 17.337594,9.72597 2.31567,-0.22497 11.97779,-3.40832 9.9374,-7.11814 -0.9109,-1.65638 -3.99652,-2.35157 -5.70872,-2.18496 -2.91385,0.28332 -5.56405,1.83313 -8.45736,2.11434 -4.882521,0.47488 -8.571454,-1.58195 -13.108914,-2.53721 m 101.911249,0 c -4.39022,0.92439 -7.92709,2.99982 -12.68605,2.53721 -3.0252,-0.29432 -5.84277,-1.81918 -8.88023,-2.11434 -1.81876,-0.17676 -4.99154,0.57848 -5.70872,2.53721 -1.23732,3.37913 6.91389,6.17133 9.09166,6.62507 7.0877,1.47666 15.66389,-2.74737 18.18334,-9.58515 m -73.156215,5.07442 c -3.80568,6.88641 -11.41926,6.8771 -18.183329,6.34302 4.445869,7.47716 15.649249,4.45026 21.989149,2.11434 v -0.42287 c -5.36637,-2.11814 -1.00309,-4.7894 -3.80582,-8.03449 m 43.978305,0.42286 c 0,3.69799 0.60766,6.14132 -3.38295,7.61163 v 0.42287 c 6.3185,2.32789 17.63192,5.41145 21.98915,-2.11434 -4.88455,0.38566 -9.04219,0.66982 -13.53178,-1.76209 -1.93166,-1.04618 -3.09794,-3.45695 -5.07442,-4.15807 z"
       id="path388"
       sodipodi:nodetypes="cccsccccscccccccccscccccccsccccccccccccccscccccsscccccsssccsccscccccccccccccccccccccccscccccccccccccc" /></g><g
     inkscape:groupmode="layer"
     id="layer2"
     inkscape:label="Layer 2" /></svg>
